<svg width="1124" height="256" viewBox="0 0 1124 256" fill="none" xmlns="http://www.w3.org/2000/svg">
<rect x="4" y="72" width="1088" height="26" fill="#C4C4C4"/>
<rect x="4" y="72" width="984.6" height="27" fill="#FF0000"/>
<rect x="4" y="230" width="1088" height="26" fill="#C4C4C4"/>
<rect x="4" y="158" width="1088" height="72" fill="#C4C4C4"/>
<rect y="229" width="657.6" height="27" fill="#FF0000"/>
<rect x="4" width="1088" height="72" fill="#C4C4C4"/>
<path d="M161.82 58H154.789V43.375H141.078V58H134.047V23.875H141.078V37.7031H154.789V23.875H161.82V58ZM192.969 29.5703H182.516V58H175.484V29.5703H165.172V23.875H192.969V29.5703ZM206.188 23.875L214.953 48.625L223.672 23.875H232.906V58H225.852V48.6719L226.555 32.5703L217.344 58H212.516L203.328 32.5938L204.031 48.6719V58H197V23.875H206.188ZM246.078 52.3516H261.008V58H239.047V23.875H246.078V52.3516Z" fill="black"/>
<path d="M160.836 199.633C160.57 203.305 159.211 206.195 156.758 208.305C154.32 210.414 151.102 211.469 147.102 211.469C142.727 211.469 139.281 210 136.766 207.062C134.266 204.109 133.016 200.062 133.016 194.922V192.836C133.016 189.555 133.594 186.664 134.75 184.164C135.906 181.664 137.555 179.75 139.695 178.422C141.852 177.078 144.352 176.406 147.195 176.406C151.133 176.406 154.305 177.461 156.711 179.57C159.117 181.68 160.508 184.641 160.883 188.453H153.852C153.68 186.25 153.062 184.656 152 183.672C150.953 182.672 149.352 182.172 147.195 182.172C144.852 182.172 143.094 183.016 141.922 184.703C140.766 186.375 140.172 188.977 140.141 192.508V195.086C140.141 198.773 140.695 201.469 141.805 203.172C142.93 204.875 144.695 205.727 147.102 205.727C149.273 205.727 150.891 205.234 151.953 204.25C153.031 203.25 153.648 201.711 153.805 199.633H160.836ZM183.148 202.047C183.148 200.719 182.68 199.703 181.742 199C180.805 198.281 179.117 197.531 176.68 196.75C174.242 195.953 172.312 195.172 170.891 194.406C167.016 192.312 165.078 189.492 165.078 185.945C165.078 184.102 165.594 182.461 166.625 181.023C167.672 179.57 169.164 178.438 171.102 177.625C173.055 176.812 175.242 176.406 177.664 176.406C180.102 176.406 182.273 176.852 184.18 177.742C186.086 178.617 187.562 179.859 188.609 181.469C189.672 183.078 190.203 184.906 190.203 186.953H183.172C183.172 185.391 182.68 184.18 181.695 183.32C180.711 182.445 179.328 182.008 177.547 182.008C175.828 182.008 174.492 182.375 173.539 183.109C172.586 183.828 172.109 184.781 172.109 185.969C172.109 187.078 172.664 188.008 173.773 188.758C174.898 189.508 176.547 190.211 178.719 190.867C182.719 192.07 185.633 193.562 187.461 195.344C189.289 197.125 190.203 199.344 190.203 202C190.203 204.953 189.086 207.273 186.852 208.961C184.617 210.633 181.609 211.469 177.828 211.469C175.203 211.469 172.812 210.992 170.656 210.039C168.5 209.07 166.852 207.75 165.711 206.078C164.586 204.406 164.023 202.469 164.023 200.266H171.078C171.078 204.031 173.328 205.914 177.828 205.914C179.5 205.914 180.805 205.578 181.742 204.906C182.68 204.219 183.148 203.266 183.148 202.047ZM212.68 202.047C212.68 200.719 212.211 199.703 211.273 199C210.336 198.281 208.648 197.531 206.211 196.75C203.773 195.953 201.844 195.172 200.422 194.406C196.547 192.312 194.609 189.492 194.609 185.945C194.609 184.102 195.125 182.461 196.156 181.023C197.203 179.57 198.695 178.438 200.633 177.625C202.586 176.812 204.773 176.406 207.195 176.406C209.633 176.406 211.805 176.852 213.711 177.742C215.617 178.617 217.094 179.859 218.141 181.469C219.203 183.078 219.734 184.906 219.734 186.953H212.703C212.703 185.391 212.211 184.18 211.227 183.32C210.242 182.445 208.859 182.008 207.078 182.008C205.359 182.008 204.023 182.375 203.07 183.109C202.117 183.828 201.641 184.781 201.641 185.969C201.641 187.078 202.195 188.008 203.305 188.758C204.43 189.508 206.078 190.211 208.25 190.867C212.25 192.07 215.164 193.562 216.992 195.344C218.82 197.125 219.734 199.344 219.734 202C219.734 204.953 218.617 207.273 216.383 208.961C214.148 210.633 211.141 211.469 207.359 211.469C204.734 211.469 202.344 210.992 200.188 210.039C198.031 209.07 196.383 207.75 195.242 206.078C194.117 204.406 193.555 202.469 193.555 200.266H200.609C200.609 204.031 202.859 205.914 207.359 205.914C209.031 205.914 210.336 205.578 211.273 204.906C212.211 204.219 212.68 203.266 212.68 202.047Z" fill="black"/>
<path d="M984.164 43.3594C982.398 45.0938 980.336 45.9609 977.977 45.9609C974.961 45.9609 972.547 44.9297 970.734 42.8672C968.922 40.7891 968.016 37.9922 968.016 34.4766C968.016 32.2422 968.5 30.1953 969.469 28.3359C970.453 26.4609 971.82 25.0078 973.57 23.9766C975.32 22.9297 977.289 22.4062 979.477 22.4062C981.727 22.4062 983.727 22.9688 985.477 24.0938C987.227 25.2188 988.586 26.8359 989.555 28.9453C990.523 31.0547 991.016 33.4688 991.031 36.1875V38.6953C991.031 44.3828 989.617 48.8516 986.789 52.1016C983.961 55.3516 979.953 57.0859 974.766 57.3047L973.102 57.3281V51.6797L974.602 51.6562C980.492 51.3906 983.68 48.625 984.164 43.3594ZM979.641 40.7812C980.734 40.7812 981.672 40.5 982.453 39.9375C983.25 39.375 983.852 38.6953 984.258 37.8984V35.1094C984.258 32.8125 983.82 31.0312 982.945 29.7656C982.07 28.5 980.898 27.8672 979.43 27.8672C978.07 27.8672 976.953 28.4922 976.078 29.7422C975.203 30.9766 974.766 32.5312 974.766 34.4062C974.766 36.2656 975.188 37.7969 976.031 39C976.891 40.1875 978.094 40.7812 979.641 40.7812ZM1018.85 42.8906C1018.85 47.6094 1017.88 51.2188 1015.92 53.7188C1013.97 56.2188 1011.11 57.4688 1007.34 57.4688C1003.62 57.4688 1000.78 56.2422 998.812 53.7891C996.844 51.3359 995.836 47.8203 995.789 43.2422V36.9609C995.789 32.1953 996.773 28.5781 998.742 26.1094C1000.73 23.6406 1003.58 22.4062 1007.3 22.4062C1011.02 22.4062 1013.86 23.6328 1015.83 26.0859C1017.8 28.5234 1018.8 32.0312 1018.85 36.6094V42.8906ZM1012.08 36C1012.08 33.1719 1011.69 31.1172 1010.91 29.8359C1010.14 28.5391 1008.94 27.8906 1007.3 27.8906C1005.7 27.8906 1004.52 28.5078 1003.76 29.7422C1003.01 30.9609 1002.61 32.875 1002.56 35.4844V43.7812C1002.56 46.5625 1002.94 48.6328 1003.69 49.9922C1004.45 51.3359 1005.67 52.0078 1007.34 52.0078C1009 52.0078 1010.2 51.3594 1010.93 50.0625C1011.66 48.7656 1012.05 46.7812 1012.08 44.1094V36ZM1023.35 29.4375C1023.35 27.3438 1024.03 25.6484 1025.39 24.3516C1026.75 23.0391 1028.53 22.3828 1030.73 22.3828C1032.97 22.3828 1034.77 23.0312 1036.12 24.3281C1037.48 25.6094 1038.16 27.3516 1038.16 29.5547V31.2422C1038.16 33.3516 1037.48 35.0469 1036.12 36.3281C1034.77 37.6094 1032.98 38.25 1030.78 38.25C1028.56 38.25 1026.77 37.6094 1025.39 36.3281C1024.03 35.0312 1023.35 33.2891 1023.35 31.1016V29.4375ZM1027.85 31.2422C1027.85 32.1797 1028.12 32.9375 1028.65 33.5156C1029.2 34.0781 1029.91 34.3594 1030.78 34.3594C1031.66 34.3594 1032.35 34.0703 1032.87 33.4922C1033.38 32.9141 1033.64 32.1406 1033.64 31.1719V29.4375C1033.64 28.5 1033.38 27.7422 1032.87 27.1641C1032.35 26.5859 1031.64 26.2969 1030.73 26.2969C1029.88 26.2969 1029.18 26.5859 1028.65 27.1641C1028.12 27.7266 1027.85 28.5156 1027.85 29.5312V31.2422ZM1039.66 48.6328C1039.66 46.5234 1040.35 44.8281 1041.73 43.5469C1043.1 42.25 1044.88 41.6016 1047.07 41.6016C1049.29 41.6016 1051.08 42.2422 1052.44 43.5234C1053.81 44.7891 1054.5 46.5391 1054.5 48.7734V50.4609C1054.5 52.5547 1053.83 54.25 1052.48 55.5469C1051.14 56.8281 1049.35 57.4688 1047.12 57.4688C1044.87 57.4688 1043.06 56.8203 1041.7 55.5234C1040.34 54.2266 1039.66 52.5078 1039.66 50.3672V48.6328ZM1044.16 50.4609C1044.16 51.3203 1044.45 52.0547 1045.01 52.6641C1045.57 53.2734 1046.27 53.5781 1047.12 53.5781C1049.02 53.5781 1049.98 52.5234 1049.98 50.4141V48.6328C1049.98 47.6953 1049.71 46.9453 1049.18 46.3828C1048.65 45.8047 1047.95 45.5156 1047.07 45.5156C1046.2 45.5156 1045.49 45.8047 1044.96 46.3828C1044.43 46.9453 1044.16 47.7188 1044.16 48.7031V50.4609ZM1032.12 54.4453L1028.81 52.6641L1045.48 25.9922L1048.78 27.7734L1032.12 54.4453Z" fill="black"/>
<path d="M986.695 176.523V182.102H986.039C982.977 182.148 980.508 182.945 978.633 184.492C976.773 186.039 975.656 188.188 975.281 190.938C977.094 189.094 979.383 188.172 982.148 188.172C985.117 188.172 987.477 189.234 989.227 191.359C990.977 193.484 991.852 196.281 991.852 199.75C991.852 201.969 991.367 203.977 990.398 205.773C989.445 207.57 988.086 208.969 986.32 209.969C984.57 210.969 982.586 211.469 980.367 211.469C976.773 211.469 973.867 210.219 971.648 207.719C969.445 205.219 968.344 201.883 968.344 197.711V195.273C968.344 191.57 969.039 188.305 970.43 185.477C971.836 182.633 973.844 180.438 976.453 178.891C979.078 177.328 982.117 176.539 985.57 176.523H986.695ZM980.086 193.609C978.992 193.609 978 193.898 977.109 194.477C976.219 195.039 975.562 195.789 975.141 196.727V198.789C975.141 201.055 975.586 202.828 976.477 204.109C977.367 205.375 978.617 206.008 980.227 206.008C981.68 206.008 982.852 205.438 983.742 204.297C984.648 203.141 985.102 201.648 985.102 199.82C985.102 197.961 984.648 196.461 983.742 195.32C982.836 194.18 981.617 193.609 980.086 193.609ZM1018.85 196.891C1018.85 201.609 1017.88 205.219 1015.92 207.719C1013.97 210.219 1011.11 211.469 1007.34 211.469C1003.62 211.469 1000.78 210.242 998.812 207.789C996.844 205.336 995.836 201.82 995.789 197.242V190.961C995.789 186.195 996.773 182.578 998.742 180.109C1000.73 177.641 1003.58 176.406 1007.3 176.406C1011.02 176.406 1013.86 177.633 1015.83 180.086C1017.8 182.523 1018.8 186.031 1018.85 190.609V196.891ZM1012.08 190C1012.08 187.172 1011.69 185.117 1010.91 183.836C1010.14 182.539 1008.94 181.891 1007.3 181.891C1005.7 181.891 1004.52 182.508 1003.76 183.742C1003.01 184.961 1002.61 186.875 1002.56 189.484V197.781C1002.56 200.562 1002.94 202.633 1003.69 203.992C1004.45 205.336 1005.67 206.008 1007.34 206.008C1009 206.008 1010.2 205.359 1010.93 204.062C1011.66 202.766 1012.05 200.781 1012.08 198.109V190ZM1023.35 183.438C1023.35 181.344 1024.03 179.648 1025.39 178.352C1026.75 177.039 1028.53 176.383 1030.73 176.383C1032.97 176.383 1034.77 177.031 1036.12 178.328C1037.48 179.609 1038.16 181.352 1038.16 183.555V185.242C1038.16 187.352 1037.48 189.047 1036.12 190.328C1034.77 191.609 1032.98 192.25 1030.78 192.25C1028.56 192.25 1026.77 191.609 1025.39 190.328C1024.03 189.031 1023.35 187.289 1023.35 185.102V183.438ZM1027.85 185.242C1027.85 186.18 1028.12 186.938 1028.65 187.516C1029.2 188.078 1029.91 188.359 1030.78 188.359C1031.66 188.359 1032.35 188.07 1032.87 187.492C1033.38 186.914 1033.64 186.141 1033.64 185.172V183.438C1033.64 182.5 1033.38 181.742 1032.87 181.164C1032.35 180.586 1031.64 180.297 1030.73 180.297C1029.88 180.297 1029.18 180.586 1028.65 181.164C1028.12 181.727 1027.85 182.516 1027.85 183.531V185.242ZM1039.66 202.633C1039.66 200.523 1040.35 198.828 1041.73 197.547C1043.1 196.25 1044.88 195.602 1047.07 195.602C1049.29 195.602 1051.08 196.242 1052.44 197.523C1053.81 198.789 1054.5 200.539 1054.5 202.773V204.461C1054.5 206.555 1053.83 208.25 1052.48 209.547C1051.14 210.828 1049.35 211.469 1047.12 211.469C1044.87 211.469 1043.06 210.82 1041.7 209.523C1040.34 208.227 1039.66 206.508 1039.66 204.367V202.633ZM1044.16 204.461C1044.16 205.32 1044.45 206.055 1045.01 206.664C1045.57 207.273 1046.27 207.578 1047.12 207.578C1049.02 207.578 1049.98 206.523 1049.98 204.414V202.633C1049.98 201.695 1049.71 200.945 1049.18 200.383C1048.65 199.805 1047.95 199.516 1047.07 199.516C1046.2 199.516 1045.49 199.805 1044.96 200.383C1044.43 200.945 1044.16 201.719 1044.16 202.703V204.461ZM1032.12 208.445L1028.81 206.664L1045.48 179.992L1048.78 181.773L1032.12 208.445Z" fill="black"/>
</svg>
